<?xml version="1.0" encoding="UTF-8"?>
<svg width="800" height="500" viewBox="0 0 800 500" xmlns="http://www.w3.org/2000/svg">
  <!-- Background -->
  <rect width="800" height="500" fill="#f8fafc" />
  
  <!-- Central Database -->
  <rect x="350" y="200" width="100" height="120" rx="5" fill="#bfdbfe" stroke="#3b82f6" stroke-width="2" />
  <rect x="360" y="210" width="80" height="10" rx="2" fill="#3b82f6" />
  <rect x="360" y="230" width="80" height="10" rx="2" fill="#3b82f6" />
  <rect x="360" y="250" width="80" height="10" rx="2" fill="#3b82f6" />
  <rect x="360" y="270" width="80" height="10" rx="2" fill="#3b82f6" />
  <rect x="360" y="290" width="80" height="10" rx="2" fill="#3b82f6" />
  
  <!-- Shield around database -->
  <path d="M400,150 L460,180 C460,270 440,350 400,380 C360,350 340,270 340,180 L400,150" fill="none" stroke="#1d4ed8" stroke-width="3" />
  
  <!-- Lock Icon -->
  <rect x="385" y="180" width="30" height="40" rx="4" fill="#1d4ed8" />
  <circle cx="400" cy="180" r="12" fill="#1d4ed8" />
  <circle cx="400" cy="192" r="4" fill="white" />
  <rect x="398" y="192" width="4" height="15" fill="white" />
  
  <!-- Data Sources -->
  <circle cx="150" cy="150" r="60" fill="#dbeafe" stroke="#3b82f6" stroke-width="2" />
  <text x="150" y="155" font-family="Arial" font-size="16" text-anchor="middle" fill="#1e40af">User Data</text>
  
  <circle cx="150" cy="350" r="60" fill="#dbeafe" stroke="#3b82f6" stroke-width="2" />
  <text x="150" y="355" font-family="Arial" font-size="16" text-anchor="middle" fill="#1e40af">IoT Devices</text>
  
  <circle cx="650" cy="150" r="60" fill="#dbeafe" stroke="#3b82f6" stroke-width="2" />
  <text x="650" y="155" font-family="Arial" font-size="16" text-anchor="middle" fill="#1e40af">Cloud Apps</text>
  
  <circle cx="650" cy="350" r="60" fill="#dbeafe" stroke="#3b82f6" stroke-width="2" />
  <text x="650" y="355" font-family="Arial" font-size="16" text-anchor="middle" fill="#1e40af">Third Party</text>
  
  <!-- Data Flow Lines -->
  <!-- From User Data to Database -->
  <path d="M205,170 C300,180 330,210 350,210" stroke="#60a5fa" stroke-width="3" fill="none" />
  <path d="M205,155 C290,155 330,200 350,200" stroke="#60a5fa" stroke-width="3" fill="none" />
  <path d="M205,140 C300,130 330,190 350,190" stroke="#60a5fa" stroke-width="3" fill="none" />
  
  <!-- Animated Data Points on User Data Flow -->
  <circle cx="230" cy="170" r="5" fill="#3b82f6">
    <animate attributeName="cx" values="205;350" dur="3s" repeatCount="indefinite" />
  </circle>
  <circle cx="250" cy="155" r="5" fill="#3b82f6">
    <animate attributeName="cx" values="205;350" dur="4s" repeatCount="indefinite" />
  </circle>
  <circle cx="220" cy="140" r="5" fill="#3b82f6">
    <animate attributeName="cx" values="205;350" dur="3.5s" repeatCount="indefinite" />
  </circle>
  
  <!-- From IoT to Database -->
  <path d="M205,330 C300,320 330,290 350,290" stroke="#60a5fa" stroke-width="3" fill="none" />
  <path d="M205,345 C290,345 330,300 350,300" stroke="#60a5fa" stroke-width="3" fill="none" />
  <path d="M205,360 C300,370 330,310 350,310" stroke="#60a5fa" stroke-width="3" fill="none" />
  
  <!-- Animated Data Points on IoT Flow -->
  <circle cx="230" cy="330" r="5" fill="#3b82f6">
    <animate attributeName="cx" values="205;350" dur="3.2s" repeatCount="indefinite" />
  </circle>
  <circle cx="250" cy="345" r="5" fill="#3b82f6">
    <animate attributeName="cx" values="205;350" dur="3.7s" repeatCount="indefinite" />
  </circle>
  <circle cx="220" cy="360" r="5" fill="#3b82f6">
    <animate attributeName="cx" values="205;350" dur="4.2s" repeatCount="indefinite" />
  </circle>
  
  <!-- From Database to Cloud Apps -->
  <path d="M450,190 C500,180 550,140 595,140" stroke="#60a5fa" stroke-width="3" fill="none" />
  <path d="M450,200 C520,200 570,155 595,155" stroke="#60a5fa" stroke-width="3" fill="none" />
  <path d="M450,210 C500,220 550,170 595,170" stroke="#60a5fa" stroke-width="3" fill="none" />
  
  <!-- Animated Data Points on Cloud Flow -->
  <circle cx="480" cy="190" r="5" fill="#3b82f6">
    <animate attributeName="cx" values="450;595" dur="3s" repeatCount="indefinite" />
  </circle>
  <circle cx="500" cy="200" r="5" fill="#3b82f6">
    <animate attributeName="cx" values="450;595" dur="3.5s" repeatCount="indefinite" />
  </circle>
  <circle cx="470" cy="210" r="5" fill="#3b82f6">
    <animate attributeName="cx" values="450;595" dur="4s" repeatCount="indefinite" />
  </circle>
  
  <!-- From Database to Third Party -->
  <path d="M450,290 C500,280 550,330 595,330" stroke="#60a5fa" stroke-width="3" fill="none" />
  <path d="M450,300 C520,300 570,345 595,345" stroke="#60a5fa" stroke-width="3" fill="none" />
  <path d="M450,310 C500,320 550,360 595,360" stroke="#60a5fa" stroke-width="3" fill="none" />
  
  <!-- Animated Data Points on Third Party Flow -->
  <circle cx="480" cy="290" r="5" fill="#3b82f6">
    <animate attributeName="cx" values="450;595" dur="3.2s" repeatCount="indefinite" />
  </circle>
  <circle cx="500" cy="300" r="5" fill="#3b82f6">
    <animate attributeName="cx" values="450;595" dur="3.7s" repeatCount="indefinite" />
  </circle>
  <circle cx="470" cy="310" r="5" fill="#3b82f6">
    <animate attributeName="cx" values="450;595" dur="4.2s" repeatCount="indefinite" />
  </circle>
  
  <!-- Privacy Policy Icons -->
  <circle cx="300" cy="80" r="25" fill="#dbeafe" stroke="#3b82f6" stroke-width="2" />
  <text x="300" y="85" font-family="Arial" font-size="12" text-anchor="middle" fill="#1e40af">GDPR</text>
  
  <circle cx="380" cy="80" r="25" fill="#dbeafe" stroke="#3b82f6" stroke-width="2" />
  <text x="380" y="85" font-family="Arial" font-size="12" text-anchor="middle" fill="#1e40af">DPDP</text>
  
  <circle cx="460" cy="80" r="25" fill="#dbeafe" stroke="#3b82f6" stroke-width="2" />
  <text x="460" y="85" font-family="Arial" font-size="12" text-anchor="middle" fill="#1e40af">HIPAA</text>
  
  <!-- Connecting lines from policies to shield -->
  <path d="M300,105 C320,130 350,140 380,160" stroke="#93c5fd" stroke-width="2" stroke-dasharray="4 2" fill="none" />
  <path d="M380,105 C380,130 390,140 400,165" stroke="#93c5fd" stroke-width="2" stroke-dasharray="4 2" fill="none" />
  <path d="M460,105 C440,130 410,140 420,160" stroke="#93c5fd" stroke-width="2" stroke-dasharray="4 2" fill="none" />
  
  <!-- Privacy Elements -->
  <circle cx="300" cy="420" r="25" fill="#dbeafe" stroke="#3b82f6" stroke-width="2" />
  <text x="300" y="425" font-family="Arial" font-size="10" text-anchor="middle" fill="#1e40af">Encrypt</text>
  
  <circle cx="380" cy="420" r="25" fill="#dbeafe" stroke="#3b82f6" stroke-width="2" />
  <text x="380" y="425" font-family="Arial" font-size="10" text-anchor="middle" fill="#1e40af">Tokenize</text>
  
  <circle cx="460" cy="420" r="25" fill="#dbeafe" stroke="#3b82f6" stroke-width="2" />
  <text x="460" y="425" font-family="Arial" font-size="10" text-anchor="middle" fill="#1e40af">Anonymize</text>
  
  <!-- Connecting lines from privacy elements to shield -->
  <path d="M300,395 C320,370 350,360 380,340" stroke="#93c5fd" stroke-width="2" stroke-dasharray="4 2" fill="none" />
  <path d="M380,395 C380,370 390,360 400,335" stroke="#93c5fd" stroke-width="2" stroke-dasharray="4 2" fill="none" />
  <path d="M460,395 C440,370 410,360 420,340" stroke="#93c5fd" stroke-width="2" stroke-dasharray="4 2" fill="none" />
  
  <!-- Title -->
  <text x="400" y="50" font-family="Arial" font-size="24" font-weight="bold" text-anchor="middle" fill="#1e40af">Secure Data Privacy Architecture</text>
</svg>