<?xml version="1.0" encoding="UTF-8"?>
<svg width="400" height="300" viewBox="0 0 400 300" xmlns="http://www.w3.org/2000/svg">
  <!-- Background -->
  <rect width="400" height="300" fill="#f0fdf4" />
  
  <!-- Finance Circle -->
  <circle cx="200" cy="150" r="100" fill="#dcfce7" />
  
  <!-- Dollar Symbol -->
  <path d="M200,90 L200,210" stroke="#16a34a" stroke-width="8" stroke-linecap="round" />
  <path d="M180,110 C180,100 190,90 200,90 C210,90 220,100 220,110 C220,130 180,130 180,150 C180,160 190,170 200,170 C210,170 220,160 220,150" stroke="#16a34a" stroke-width="8" stroke-linecap="round" fill="none" />
  
  <!-- Shield -->
  <path d="M200,70 L260,95 C260,145 235,195 200,215 C165,195 140,145 140,95 L200,70" fill="none" stroke="#166534" stroke-width="4" />
  
  <!-- Lock -->
  <rect x="185" y="125" width="30" height="40" rx="4" fill="#166534" />
  <circle cx="200" cy="125" r="12" fill="#166534" />
  <circle cx="200" cy="137" r="4" fill="white" />
  <rect x="198" y="137" width="4" height="15" fill="white" />
  
  <!-- Data Points -->
  <circle cx="150" cy="95" r="5" fill="#22c55e" />
  <circle cx="170" cy="85" r="5" fill="#22c55e" />
  <circle cx="250" cy="95" r="5" fill="#22c55e" />
  <circle cx="230" cy="85" r="5" fill="#22c55e" />
  
  <!-- Data Flow Lines -->
  <path d="M120,200 C150,220 250,220 280,200" stroke="#16a34a" stroke-width="3" stroke-dasharray="7 3" fill="none" />
  <path d="M120,210 C150,230 250,230 280,210" stroke="#16a34a" stroke-width="2" stroke-dasharray="5 2" fill="none" />
  <path d="M120,220 C150,240 250,240 280,220" stroke="#16a34a" stroke-width="1" stroke-dasharray="3 1" fill="none" />
  
  <!-- Bar Chart -->
  <rect x="120" y="170" width="12" height="30" fill="#22c55e" opacity="0.7" />
  <rect x="140" y="160" width="12" height="40" fill="#22c55e" opacity="0.7" />
  <rect x="160" y="175" width="12" height="25" fill="#22c55e" opacity="0.7" />
  <rect x="180" y="155" width="12" height="45" fill="#22c55e" opacity="0.7" />
  
  <!-- Pie Chart -->
  <path d="M260,160 L260,190 A30,30 0 0,0 284,175 Z" fill="#22c55e" opacity="0.7" />
  <path d="M260,160 L284,175 A30,30 0 0,0 260,130 Z" fill="#15803d" opacity="0.7" />
  <path d="M260,160 L260,130 A30,30 0 0,0 236,175 Z" fill="#166534" opacity="0.7" />
  <path d="M260,160 L236,175 A30,30 0 0,0 260,190 Z" fill="#86efac" opacity="0.7" />
</svg>