<?xml version="1.0" encoding="UTF-8"?>
<svg width="400" height="300" viewBox="0 0 400 300" xmlns="http://www.w3.org/2000/svg">
  <!-- Background -->
  <rect width="400" height="300" fill="#f0f7ff" />
  
  <!-- Healthcare Symbol -->
  <circle cx="200" cy="150" r="100" fill="#deeaff" />
  <rect x="180" y="80" width="40" height="140" rx="5" fill="#3b82f6" />
  <rect x="130" y="150" width="140" height="40" rx="5" fill="#3b82f6" />
  
  <!-- Shield Outline -->
  <path d="M200,60 L270,90 C270,150 240,210 200,230 C160,210 130,150 130,90 L200,60" fill="none" stroke="#2563eb" stroke-width="5" />
  
  <!-- Lock Symbol -->
  <rect x="180" y="130" width="40" height="50" rx="5" fill="#1e40af" />
  <circle cx="200" cy="130" r="15" fill="#1e40af" />
  <circle cx="200" cy="145" r="5" fill="white" />
  <rect x="198" y="145" width="4" height="18" fill="white" />
  
  <!-- Privacy Elements -->
  <circle cx="130" cy="100" r="15" fill="#60a5fa" opacity="0.6" />
  <circle cx="150" cy="80" r="10" fill="#60a5fa" opacity="0.6" />
  <circle cx="270" cy="120" r="12" fill="#60a5fa" opacity="0.6" />
  <circle cx="250" cy="80" r="15" fill="#60a5fa" opacity="0.6" />
  
  <!-- Data Flow Lines -->
  <path d="M120,200 C150,220 250,220 280,200" stroke="#3b82f6" stroke-width="3" stroke-dasharray="8 4" fill="none" />
  <path d="M120,210 C150,230 250,230 280,210" stroke="#3b82f6" stroke-width="2" stroke-dasharray="6 3" fill="none" />
  <path d="M120,220 C150,240 250,240 280,220" stroke="#3b82f6" stroke-width="1" stroke-dasharray="4 2" fill="none" />
</svg>